<svg xmlns="http://www.w3.org/2000/svg" id="export" class="canvas" preserveAspectRatio="xMidYMid meet" style="" width="118" height="613"><rect id="background" fill="#fff" pointer-events="all" width="118" height="613"/><g id="origin" transform="translate(5.360968017578125, 5.360968017578125) scale(1)"><g id="clusters" class="clusters"/><g id="edge-paths" class="edge-paths"><defs><marker id="arrowhead" viewBox="0 0 10 10" refX="9" refY="5" markerUnits="strokeWidth" markerWidth="8" markerHeight="6" orient="auto" style="fill: rgb(0, 0, 0);"><path d="M 0 0 L 10 5 L 0 10 L 4 5 z" style="stroke-width: 1;"/></marker><marker id="arrowhead-select" viewBox="0 0 10 10" refX="9" refY="5" markerUnits="strokeWidth" markerWidth="8" markerHeight="6" orient="auto" style="fill: rgb(238, 0, 0);"><path d="M 0 0 L 10 5 L 0 10 L 4 5 z" style="stroke-width: 1;"/></marker><marker id="arrowhead-hover" viewBox="0 0 10 10" refX="9" refY="5" markerUnits="strokeWidth" markerWidth="8" markerHeight="6" orient="auto" style="fill: rgb(238, 0, 0);"><path d="M 0 0 L 10 5 L 0 10 L 4 5 z" style="stroke-width: 1;"/></marker></defs><path class="edge-path-hit-test" d="M53.60968017578125,20L53.60968017578125,21.666666666666668C53.60968017578125,23.333333333333332,53.60968017578125,26.666666666666668,53.60968017578125,31.75C53.60968017578125,36.833333333333336,53.60968017578125,43.666666666666664,53.60968017578125,50.5C53.60968017578125,57.333333333333336,53.60968017578125,64.16666666666667,53.60968017578125,69.25C53.60968017578125,74.33333333333333,53.60968017578125,77.66666666666667,53.60968017578125,79.33333333333333L53.60968017578125,81" style="pointer-events: stroke; stroke-width: 0.5em; fill: none; stroke-opacity: 0;"/><path id="edge-Input Image" class="edge-path" d="M53.60968017578125,20L53.60968017578125,21.666666666666668C53.60968017578125,23.333333333333332,53.60968017578125,26.666666666666668,53.60968017578125,31.75C53.60968017578125,36.833333333333336,53.60968017578125,43.666666666666664,53.60968017578125,50.5C53.60968017578125,57.333333333333336,53.60968017578125,64.16666666666667,53.60968017578125,69.25C53.60968017578125,74.33333333333333,53.60968017578125,77.66666666666667,53.60968017578125,79.33333333333333L53.60968017578125,81" style="stroke: rgb(0, 0, 0); stroke-width: 1px; fill: none; marker-end: url(&quot;#arrowhead&quot;);"/><path class="edge-path-hit-test" d="M53.60968017578125,101L53.60968017578125,102.66666666666667C53.60968017578125,104.33333333333333,53.60968017578125,107.66666666666667,53.60968017578125,111C53.60968017578125,114.33333333333333,53.60968017578125,117.66666666666667,53.60968017578125,119.33333333333333L53.60968017578125,121" style="pointer-events: stroke; stroke-width: 0.5em; fill: none; stroke-opacity: 0;"/><path id="edge-/hidden0/hidden0.0/Flatten_output_0" class="edge-path" d="M53.60968017578125,101L53.60968017578125,102.66666666666667C53.60968017578125,104.33333333333333,53.60968017578125,107.66666666666667,53.60968017578125,111C53.60968017578125,114.33333333333333,53.60968017578125,117.66666666666667,53.60968017578125,119.33333333333333L53.60968017578125,121" style="stroke: rgb(0, 0, 0); stroke-width: 1px; fill: none; marker-end: url(&quot;#arrowhead&quot;);"/><path class="edge-path-hit-test" d="M53.60968017578125,171L53.60968017578125,172.66666666666666C53.60968017578125,174.33333333333334,53.60968017578125,177.66666666666666,53.60968017578125,181C53.60968017578125,184.33333333333334,53.60968017578125,187.66666666666666,53.60968017578125,189.33333333333334L53.60968017578125,191" style="pointer-events: stroke; stroke-width: 0.5em; fill: none; stroke-opacity: 0;"/><path id="edge-/hidden0/hidden0.1/Gemm_output_0" class="edge-path" d="M53.60968017578125,171L53.60968017578125,172.66666666666666C53.60968017578125,174.33333333333334,53.60968017578125,177.66666666666666,53.60968017578125,181C53.60968017578125,184.33333333333334,53.60968017578125,187.66666666666666,53.60968017578125,189.33333333333334L53.60968017578125,191" style="stroke: rgb(0, 0, 0); stroke-width: 1px; fill: none; marker-end: url(&quot;#arrowhead&quot;);"/><path class="edge-path-hit-test" d="M53.60968017578125,211L53.60968017578125,212.66666666666666C53.60968017578125,214.33333333333334,53.60968017578125,217.66666666666666,53.60968017578125,221C53.60968017578125,224.33333333333334,53.60968017578125,227.66666666666666,53.60968017578125,229.33333333333334L53.60968017578125,231" style="pointer-events: stroke; stroke-width: 0.5em; fill: none; stroke-opacity: 0;"/><path id="edge-/hidden0/hidden0.2/LeakyRelu_output_0" class="edge-path" d="M53.60968017578125,211L53.60968017578125,212.66666666666666C53.60968017578125,214.33333333333334,53.60968017578125,217.66666666666666,53.60968017578125,221C53.60968017578125,224.33333333333334,53.60968017578125,227.66666666666666,53.60968017578125,229.33333333333334L53.60968017578125,231" style="stroke: rgb(0, 0, 0); stroke-width: 1px; fill: none; marker-end: url(&quot;#arrowhead&quot;);"/><path class="edge-path-hit-test" d="M53.60968017578125,281L53.60968017578125,282.6666666666667C53.60968017578125,284.3333333333333,53.60968017578125,287.6666666666667,53.60968017578125,291C53.60968017578125,294.3333333333333,53.60968017578125,297.6666666666667,53.60968017578125,299.3333333333333L53.60968017578125,301" style="pointer-events: stroke; stroke-width: 0.5em; fill: none; stroke-opacity: 0;"/><path id="edge-/hidden1/hidden1.0/Gemm_output_0" class="edge-path" d="M53.60968017578125,281L53.60968017578125,282.6666666666667C53.60968017578125,284.3333333333333,53.60968017578125,287.6666666666667,53.60968017578125,291C53.60968017578125,294.3333333333333,53.60968017578125,297.6666666666667,53.60968017578125,299.3333333333333L53.60968017578125,301" style="stroke: rgb(0, 0, 0); stroke-width: 1px; fill: none; marker-end: url(&quot;#arrowhead&quot;);"/><path class="edge-path-hit-test" d="M53.60968017578125,321L53.60968017578125,322.6666666666667C53.60968017578125,324.3333333333333,53.60968017578125,327.6666666666667,53.60968017578125,331C53.60968017578125,334.3333333333333,53.60968017578125,337.6666666666667,53.60968017578125,339.3333333333333L53.60968017578125,341" style="pointer-events: stroke; stroke-width: 0.5em; fill: none; stroke-opacity: 0;"/><path id="edge-/hidden1/hidden1.1/LeakyRelu_output_0" class="edge-path" d="M53.60968017578125,321L53.60968017578125,322.6666666666667C53.60968017578125,324.3333333333333,53.60968017578125,327.6666666666667,53.60968017578125,331C53.60968017578125,334.3333333333333,53.60968017578125,337.6666666666667,53.60968017578125,339.3333333333333L53.60968017578125,341" style="stroke: rgb(0, 0, 0); stroke-width: 1px; fill: none; marker-end: url(&quot;#arrowhead&quot;);"/><path class="edge-path-hit-test" d="M53.60968017578125,391L53.60968017578125,392.6666666666667C53.60968017578125,394.3333333333333,53.60968017578125,397.6666666666667,53.60968017578125,401C53.60968017578125,404.3333333333333,53.60968017578125,407.6666666666667,53.60968017578125,409.3333333333333L53.60968017578125,411" style="pointer-events: stroke; stroke-width: 0.5em; fill: none; stroke-opacity: 0;"/><path id="edge-/hidden2/hidden2.0/Gemm_output_0" class="edge-path" d="M53.60968017578125,391L53.60968017578125,392.6666666666667C53.60968017578125,394.3333333333333,53.60968017578125,397.6666666666667,53.60968017578125,401C53.60968017578125,404.3333333333333,53.60968017578125,407.6666666666667,53.60968017578125,409.3333333333333L53.60968017578125,411" style="stroke: rgb(0, 0, 0); stroke-width: 1px; fill: none; marker-end: url(&quot;#arrowhead&quot;);"/><path class="edge-path-hit-test" d="M53.60968017578125,431L53.60968017578125,432.6666666666667C53.60968017578125,434.3333333333333,53.60968017578125,437.6666666666667,53.60968017578125,441C53.60968017578125,444.3333333333333,53.60968017578125,447.6666666666667,53.60968017578125,449.3333333333333L53.60968017578125,451" style="pointer-events: stroke; stroke-width: 0.5em; fill: none; stroke-opacity: 0;"/><path id="edge-/hidden2/hidden2.1/LeakyRelu_output_0" class="edge-path" d="M53.60968017578125,431L53.60968017578125,432.6666666666667C53.60968017578125,434.3333333333333,53.60968017578125,437.6666666666667,53.60968017578125,441C53.60968017578125,444.3333333333333,53.60968017578125,447.6666666666667,53.60968017578125,449.3333333333333L53.60968017578125,451" style="stroke: rgb(0, 0, 0); stroke-width: 1px; fill: none; marker-end: url(&quot;#arrowhead&quot;);"/><path class="edge-path-hit-test" d="M53.60968017578125,501L53.60968017578125,502.6666666666667C53.60968017578125,504.3333333333333,53.60968017578125,507.6666666666667,53.60968017578125,511C53.60968017578125,514.3333333333334,53.60968017578125,517.6666666666666,53.60968017578125,519.3333333333334L53.60968017578125,521" style="pointer-events: stroke; stroke-width: 0.5em; fill: none; stroke-opacity: 0;"/><path id="edge-/hidden3/hidden3.0/Gemm_output_0" class="edge-path" d="M53.60968017578125,501L53.60968017578125,502.6666666666667C53.60968017578125,504.3333333333333,53.60968017578125,507.6666666666667,53.60968017578125,511C53.60968017578125,514.3333333333334,53.60968017578125,517.6666666666666,53.60968017578125,519.3333333333334L53.60968017578125,521" style="stroke: rgb(0, 0, 0); stroke-width: 1px; fill: none; marker-end: url(&quot;#arrowhead&quot;);"/><path class="edge-path-hit-test" d="M53.60968017578125,541L53.60968017578125,544.4166666666666C53.60968017578125,547.8333333333334,53.60968017578125,554.6666666666666,53.60968017578125,561.5C53.60968017578125,568.3333333333334,53.60968017578125,575.1666666666666,53.60968017578125,578.5833333333334L53.60968017578125,582" style="pointer-events: stroke; stroke-width: 0.5em; fill: none; stroke-opacity: 0;"/><path id="edge-Image Class Labels" class="edge-path" d="M53.60968017578125,541L53.60968017578125,544.4166666666666C53.60968017578125,547.8333333333334,53.60968017578125,554.6666666666666,53.60968017578125,561.5C53.60968017578125,568.3333333333334,53.60968017578125,575.1666666666666,53.60968017578125,578.5833333333334L53.60968017578125,582" style="stroke: rgb(0, 0, 0); stroke-width: 1px; fill: none; marker-end: url(&quot;#arrowhead&quot;);"/></g><g id="edge-labels" class="edge-labels"><text class="edge-label" id="edge-label-edge-Input Image" style="opacity: 1; font-family: -apple-system, BlinkMacSystemFont, &quot;Segoe WPC&quot;, &quot;Segoe UI&quot;, Ubuntu, &quot;Droid Sans&quot;, sans-serif, &quot;PingFang SC&quot;; font-size: 10px;" transform="translate(58.60968017578125,45)"><tspan xml:space="preserve" dy="1em" x="1">1×28×28</tspan></text><text class="edge-label" id="edge-label-edge-Image Class Labels" style="opacity: 1; font-family: -apple-system, BlinkMacSystemFont, &quot;Segoe WPC&quot;, &quot;Segoe UI&quot;, Ubuntu, &quot;Droid Sans&quot;, sans-serif, &quot;PingFang SC&quot;; font-size: 10px;" transform="translate(58.60968017578125,556)"><tspan xml:space="preserve" dy="1em" x="1">1×10</tspan></text></g><g id="nodes" class="nodes"><g id="input-name-Input Image" class="node graph-input" style="opacity: 1;" transform="translate(16.75030517578125,0)"><g class="node-item graph-item-input" transform="translate(0,0)"><path d="M5,0h63.71875a5,5 0 0 1 5,5v10a5,5 0 0 1 -5,5h-63.71875a5,5 0 0 1 -5,-5v-10a5,5 0 0 1 5,-5z" style="stroke: rgb(0, 0, 0); fill: rgb(238, 238, 238); stroke-width: 0;"/><text x="6" y="13" style="font-family: -apple-system, BlinkMacSystemFont, &quot;Segoe WPC&quot;, &quot;Segoe UI&quot;, Ubuntu, &quot;Droid Sans&quot;, sans-serif, &quot;PingFang SC&quot;; font-size: 11px; text-rendering: geometricprecision;">Input Image</text><title>float32[1,28,28]</title></g><path class="node border" d="M5,0h63.71875a5,5 0 0 1 5,5v10a5,5 0 0 1 -5,5h-63.71875a5,5 0 0 1 -5,-5v-10a5,5 0 0 1 5,-5z" style="stroke: rgb(51, 51, 51); fill: none; stroke-width: 1px;"/></g><g id="node-name-/hidden0/hidden0.0/Flatten" class="node graph-node" style="opacity: 1;" transform="translate(28.67999267578125,81)"><g class="node-item node-item-type node-item-type-shape" transform="translate(0,0)"><path d="M5,0h39.859375a5,5 0 0 1 5,5v10a5,5 0 0 1 -5,5h-39.859375a5,5 0 0 1 -5,-5v-10a5,5 0 0 1 5,-5z" style="stroke: rgb(0, 0, 0); fill: rgb(108, 79, 71); stroke-width: 0;"/><text x="6" y="13" style="font-family: -apple-system, BlinkMacSystemFont, &quot;Segoe WPC&quot;, &quot;Segoe UI&quot;, Ubuntu, &quot;Droid Sans&quot;, sans-serif, &quot;PingFang SC&quot;; font-size: 11px; text-rendering: geometricprecision; fill: rgb(255, 255, 255);">Flatten</text><title>/hidden0/hidden0.0/Flatten</title></g><path class="node border" d="M5,0h39.859375a5,5 0 0 1 5,5v10a5,5 0 0 1 -5,5h-39.859375a5,5 0 0 1 -5,-5v-10a5,5 0 0 1 5,-5z" style="stroke: rgb(51, 51, 51); fill: none; stroke-width: 1px;"/></g><g id="node-name-/hidden0/hidden0.1/Gemm" class="node graph-node" style="opacity: 1;" transform="translate(16.10968017578125,121)"><g class="node-item node-item-type node-item-type-layer" transform="translate(0,0)"><path d="M5,0h65a5,5 0 0 1 5,5v15a0,0 0 0 1 0,0h-75a0,0 0 0 1 0,0v-15a5,5 0 0 1 5,-5z" style="stroke: rgb(0, 0, 0); fill: rgb(51, 85, 136); stroke-width: 0;"/><text x="6" y="13" style="font-family: -apple-system, BlinkMacSystemFont, &quot;Segoe WPC&quot;, &quot;Segoe UI&quot;, Ubuntu, &quot;Droid Sans&quot;, sans-serif, &quot;PingFang SC&quot;; font-size: 11px; text-rendering: geometricprecision; fill: rgb(255, 255, 255);">Gemm</text><title>/hidden0/hidden0.1/Gemm</title></g><g class="node-attribute" transform="translate(0,20)"><path d="M0,0h75a0,0 0 0 1 0,0v25a5,5 0 0 1 -5,5h-65a5,5 0 0 1 -5,-5v-25a0,0 0 0 1 0,0z" style="stroke: rgb(0, 0, 0); fill: rgb(255, 255, 255); stroke-width: 0;"/><text id="initializer-hidden0.1.weight" xml:space="preserve" x="6" y="12" style="font-family: -apple-system, BlinkMacSystemFont, &quot;Segoe WPC&quot;, &quot;Segoe UI&quot;, Ubuntu, &quot;Droid Sans&quot;, sans-serif, &quot;PingFang SC&quot;; font-size: 9px; font-weight: normal; text-rendering: geometricprecision;"><title>float32[250,784]</title><tspan style="font-weight: bold;">B</tspan><tspan>〈250×784〉</tspan></text><text id="initializer-hidden0.1.bias" xml:space="preserve" x="6" y="24" style="font-family: -apple-system, BlinkMacSystemFont, &quot;Segoe WPC&quot;, &quot;Segoe UI&quot;, Ubuntu, &quot;Droid Sans&quot;, sans-serif, &quot;PingFang SC&quot;; font-size: 9px; font-weight: normal; text-rendering: geometricprecision;"><title>float32[250]</title><tspan style="font-weight: bold;">C</tspan><tspan>〈250〉</tspan></text><line class="node" x1="0" x2="75" y1="0" y2="0" style="stroke: rgb(51, 51, 51); fill: none; stroke-width: 1px;"/></g><path class="node border" d="M5,0h65a5,5 0 0 1 5,5v40a5,5 0 0 1 -5,5h-65a5,5 0 0 1 -5,-5v-40a5,5 0 0 1 5,-5z" style="stroke: rgb(51, 51, 51); fill: none; stroke-width: 1px;"/></g><g id="node-name-/hidden0/hidden0.2/LeakyRelu" class="node graph-node" style="opacity: 1;" transform="translate(21.07843017578125,191)"><g class="node-item node-item-type node-item-type-activation" transform="translate(0,0)"><path d="M5,0h55.0625a5,5 0 0 1 5,5v10a5,5 0 0 1 -5,5h-55.0625a5,5 0 0 1 -5,-5v-10a5,5 0 0 1 5,-5z" style="stroke: rgb(0, 0, 0); fill: rgb(112, 41, 33); stroke-width: 0;"/><text x="6" y="13" style="font-family: -apple-system, BlinkMacSystemFont, &quot;Segoe WPC&quot;, &quot;Segoe UI&quot;, Ubuntu, &quot;Droid Sans&quot;, sans-serif, &quot;PingFang SC&quot;; font-size: 11px; text-rendering: geometricprecision; fill: rgb(255, 255, 255);">LeakyRelu</text><title>/hidden0/hidden0.2/LeakyRelu</title></g><path class="node border" d="M5,0h55.0625a5,5 0 0 1 5,5v10a5,5 0 0 1 -5,5h-55.0625a5,5 0 0 1 -5,-5v-10a5,5 0 0 1 5,-5z" style="stroke: rgb(51, 51, 51); fill: none; stroke-width: 1px;"/></g><g id="node-name-/hidden1/hidden1.0/Gemm" class="node graph-node" style="opacity: 1;" transform="translate(16.10968017578125,231)"><g class="node-item node-item-type node-item-type-layer" transform="translate(0,0)"><path d="M5,0h65a5,5 0 0 1 5,5v15a0,0 0 0 1 0,0h-75a0,0 0 0 1 0,0v-15a5,5 0 0 1 5,-5z" style="stroke: rgb(0, 0, 0); fill: rgb(51, 85, 136); stroke-width: 0;"/><text x="6" y="13" style="font-family: -apple-system, BlinkMacSystemFont, &quot;Segoe WPC&quot;, &quot;Segoe UI&quot;, Ubuntu, &quot;Droid Sans&quot;, sans-serif, &quot;PingFang SC&quot;; font-size: 11px; text-rendering: geometricprecision; fill: rgb(255, 255, 255);">Gemm</text><title>/hidden1/hidden1.0/Gemm</title></g><g class="node-attribute" transform="translate(0,20)"><path d="M0,0h75a0,0 0 0 1 0,0v25a5,5 0 0 1 -5,5h-65a5,5 0 0 1 -5,-5v-25a0,0 0 0 1 0,0z" style="stroke: rgb(0, 0, 0); fill: rgb(255, 255, 255); stroke-width: 0;"/><text id="initializer-hidden1.0.weight" xml:space="preserve" x="6" y="12" style="font-family: -apple-system, BlinkMacSystemFont, &quot;Segoe WPC&quot;, &quot;Segoe UI&quot;, Ubuntu, &quot;Droid Sans&quot;, sans-serif, &quot;PingFang SC&quot;; font-size: 9px; font-weight: normal; text-rendering: geometricprecision;"><title>float32[100,250]</title><tspan style="font-weight: bold;">B</tspan><tspan>〈100×250〉</tspan></text><text id="initializer-hidden1.0.bias" xml:space="preserve" x="6" y="24" style="font-family: -apple-system, BlinkMacSystemFont, &quot;Segoe WPC&quot;, &quot;Segoe UI&quot;, Ubuntu, &quot;Droid Sans&quot;, sans-serif, &quot;PingFang SC&quot;; font-size: 9px; font-weight: normal; text-rendering: geometricprecision;"><title>float32[100]</title><tspan style="font-weight: bold;">C</tspan><tspan>〈100〉</tspan></text><line class="node" x1="0" x2="75" y1="0" y2="0" style="stroke: rgb(51, 51, 51); fill: none; stroke-width: 1px;"/></g><path class="node border" d="M5,0h65a5,5 0 0 1 5,5v40a5,5 0 0 1 -5,5h-65a5,5 0 0 1 -5,-5v-40a5,5 0 0 1 5,-5z" style="stroke: rgb(51, 51, 51); fill: none; stroke-width: 1px;"/></g><g id="node-name-/hidden1/hidden1.1/LeakyRelu" class="node graph-node" style="opacity: 1;" transform="translate(21.07843017578125,301)"><g class="node-item node-item-type node-item-type-activation" transform="translate(0,0)"><path d="M5,0h55.0625a5,5 0 0 1 5,5v10a5,5 0 0 1 -5,5h-55.0625a5,5 0 0 1 -5,-5v-10a5,5 0 0 1 5,-5z" style="stroke: rgb(0, 0, 0); fill: rgb(112, 41, 33); stroke-width: 0;"/><text x="6" y="13" style="font-family: -apple-system, BlinkMacSystemFont, &quot;Segoe WPC&quot;, &quot;Segoe UI&quot;, Ubuntu, &quot;Droid Sans&quot;, sans-serif, &quot;PingFang SC&quot;; font-size: 11px; text-rendering: geometricprecision; fill: rgb(255, 255, 255);">LeakyRelu</text><title>/hidden1/hidden1.1/LeakyRelu</title></g><path class="node border" d="M5,0h55.0625a5,5 0 0 1 5,5v10a5,5 0 0 1 -5,5h-55.0625a5,5 0 0 1 -5,-5v-10a5,5 0 0 1 5,-5z" style="stroke: rgb(51, 51, 51); fill: none; stroke-width: 1px;"/></g><g id="node-name-/hidden2/hidden2.0/Gemm" class="node graph-node" style="opacity: 1;" transform="translate(16.10968017578125,341)"><g class="node-item node-item-type node-item-type-layer" transform="translate(0,0)"><path d="M5,0h65a5,5 0 0 1 5,5v15a0,0 0 0 1 0,0h-75a0,0 0 0 1 0,0v-15a5,5 0 0 1 5,-5z" style="stroke: rgb(0, 0, 0); fill: rgb(51, 85, 136); stroke-width: 0;"/><text x="6" y="13" style="font-family: -apple-system, BlinkMacSystemFont, &quot;Segoe WPC&quot;, &quot;Segoe UI&quot;, Ubuntu, &quot;Droid Sans&quot;, sans-serif, &quot;PingFang SC&quot;; font-size: 11px; text-rendering: geometricprecision; fill: rgb(255, 255, 255);">Gemm</text><title>/hidden2/hidden2.0/Gemm</title></g><g class="node-attribute" transform="translate(0,20)"><path d="M0,0h75a0,0 0 0 1 0,0v25a5,5 0 0 1 -5,5h-65a5,5 0 0 1 -5,-5v-25a0,0 0 0 1 0,0z" style="stroke: rgb(0, 0, 0); fill: rgb(255, 255, 255); stroke-width: 0;"/><text id="initializer-hidden2.0.weight" xml:space="preserve" x="6" y="12" style="font-family: -apple-system, BlinkMacSystemFont, &quot;Segoe WPC&quot;, &quot;Segoe UI&quot;, Ubuntu, &quot;Droid Sans&quot;, sans-serif, &quot;PingFang SC&quot;; font-size: 9px; font-weight: normal; text-rendering: geometricprecision;"><title>float32[50,100]</title><tspan style="font-weight: bold;">B</tspan><tspan>〈50×100〉</tspan></text><text id="initializer-hidden2.0.bias" xml:space="preserve" x="6" y="24" style="font-family: -apple-system, BlinkMacSystemFont, &quot;Segoe WPC&quot;, &quot;Segoe UI&quot;, Ubuntu, &quot;Droid Sans&quot;, sans-serif, &quot;PingFang SC&quot;; font-size: 9px; font-weight: normal; text-rendering: geometricprecision;"><title>float32[50]</title><tspan style="font-weight: bold;">C</tspan><tspan>〈50〉</tspan></text><line class="node" x1="0" x2="75" y1="0" y2="0" style="stroke: rgb(51, 51, 51); fill: none; stroke-width: 1px;"/></g><path class="node border" d="M5,0h65a5,5 0 0 1 5,5v40a5,5 0 0 1 -5,5h-65a5,5 0 0 1 -5,-5v-40a5,5 0 0 1 5,-5z" style="stroke: rgb(51, 51, 51); fill: none; stroke-width: 1px;"/></g><g id="node-name-/hidden2/hidden2.1/LeakyRelu" class="node graph-node" style="opacity: 1;" transform="translate(21.07843017578125,411)"><g class="node-item node-item-type node-item-type-activation" transform="translate(0,0)"><path d="M5,0h55.0625a5,5 0 0 1 5,5v10a5,5 0 0 1 -5,5h-55.0625a5,5 0 0 1 -5,-5v-10a5,5 0 0 1 5,-5z" style="stroke: rgb(0, 0, 0); fill: rgb(112, 41, 33); stroke-width: 0;"/><text x="6" y="13" style="font-family: -apple-system, BlinkMacSystemFont, &quot;Segoe WPC&quot;, &quot;Segoe UI&quot;, Ubuntu, &quot;Droid Sans&quot;, sans-serif, &quot;PingFang SC&quot;; font-size: 11px; text-rendering: geometricprecision; fill: rgb(255, 255, 255);">LeakyRelu</text><title>/hidden2/hidden2.1/LeakyRelu</title></g><path class="node border" d="M5,0h55.0625a5,5 0 0 1 5,5v10a5,5 0 0 1 -5,5h-55.0625a5,5 0 0 1 -5,-5v-10a5,5 0 0 1 5,-5z" style="stroke: rgb(51, 51, 51); fill: none; stroke-width: 1px;"/></g><g id="node-name-/hidden3/hidden3.0/Gemm" class="node graph-node" style="opacity: 1;" transform="translate(16.10968017578125,451)"><g class="node-item node-item-type node-item-type-layer" transform="translate(0,0)"><path d="M5,0h65a5,5 0 0 1 5,5v15a0,0 0 0 1 0,0h-75a0,0 0 0 1 0,0v-15a5,5 0 0 1 5,-5z" style="stroke: rgb(0, 0, 0); fill: rgb(51, 85, 136); stroke-width: 0;"/><text x="6" y="13" style="font-family: -apple-system, BlinkMacSystemFont, &quot;Segoe WPC&quot;, &quot;Segoe UI&quot;, Ubuntu, &quot;Droid Sans&quot;, sans-serif, &quot;PingFang SC&quot;; font-size: 11px; text-rendering: geometricprecision; fill: rgb(255, 255, 255);">Gemm</text><title>/hidden3/hidden3.0/Gemm</title></g><g class="node-attribute" transform="translate(0,20)"><path d="M0,0h75a0,0 0 0 1 0,0v25a5,5 0 0 1 -5,5h-65a5,5 0 0 1 -5,-5v-25a0,0 0 0 1 0,0z" style="stroke: rgb(0, 0, 0); fill: rgb(255, 255, 255); stroke-width: 0;"/><text id="initializer-hidden3.0.weight" xml:space="preserve" x="6" y="12" style="font-family: -apple-system, BlinkMacSystemFont, &quot;Segoe WPC&quot;, &quot;Segoe UI&quot;, Ubuntu, &quot;Droid Sans&quot;, sans-serif, &quot;PingFang SC&quot;; font-size: 9px; font-weight: normal; text-rendering: geometricprecision;"><title>float32[10,50]</title><tspan style="font-weight: bold;">B</tspan><tspan>〈10×50〉</tspan></text><text id="initializer-hidden3.0.bias" xml:space="preserve" x="6" y="24" style="font-family: -apple-system, BlinkMacSystemFont, &quot;Segoe WPC&quot;, &quot;Segoe UI&quot;, Ubuntu, &quot;Droid Sans&quot;, sans-serif, &quot;PingFang SC&quot;; font-size: 9px; font-weight: normal; text-rendering: geometricprecision;"><title>float32[10]</title><tspan style="font-weight: bold;">C</tspan><tspan>〈10〉</tspan></text><line class="node" x1="0" x2="75" y1="0" y2="0" style="stroke: rgb(51, 51, 51); fill: none; stroke-width: 1px;"/></g><path class="node border" d="M5,0h65a5,5 0 0 1 5,5v40a5,5 0 0 1 -5,5h-65a5,5 0 0 1 -5,-5v-40a5,5 0 0 1 5,-5z" style="stroke: rgb(51, 51, 51); fill: none; stroke-width: 1px;"/></g><g id="node-name-/hidden3/hidden3.1/LogSoftmax" class="node graph-node" style="opacity: 1;" transform="translate(16.285888671875,521)"><g class="node-item node-item-type node-item-type-activation" transform="translate(0,0)"><path d="M5,0h64.6475830078125a5,5 0 0 1 5,5v10a5,5 0 0 1 -5,5h-64.6475830078125a5,5 0 0 1 -5,-5v-10a5,5 0 0 1 5,-5z" style="stroke: rgb(0, 0, 0); fill: rgb(112, 41, 33); stroke-width: 0;"/><text x="6" y="13" style="font-family: -apple-system, BlinkMacSystemFont, &quot;Segoe WPC&quot;, &quot;Segoe UI&quot;, Ubuntu, &quot;Droid Sans&quot;, sans-serif, &quot;PingFang SC&quot;; font-size: 11px; text-rendering: geometricprecision; fill: rgb(255, 255, 255);">LogSoftmax</text><title>/hidden3/hidden3.1/LogSoftmax</title></g><path class="node border" d="M5,0h64.6475830078125a5,5 0 0 1 5,5v10a5,5 0 0 1 -5,5h-64.6475830078125a5,5 0 0 1 -5,-5v-10a5,5 0 0 1 5,-5z" style="stroke: rgb(51, 51, 51); fill: none; stroke-width: 1px;"/></g><g class="node" style="opacity: 1;" transform="translate(0,582)"><g class="node-item graph-item-output" transform="translate(0,0)"><path d="M5,0h97.2193603515625a5,5 0 0 1 5,5v10a5,5 0 0 1 -5,5h-97.2193603515625a5,5 0 0 1 -5,-5v-10a5,5 0 0 1 5,-5z" style="stroke: rgb(0, 0, 0); fill: rgb(238, 238, 238); stroke-width: 0;"/><text x="6" y="13" style="font-family: -apple-system, BlinkMacSystemFont, &quot;Segoe WPC&quot;, &quot;Segoe UI&quot;, Ubuntu, &quot;Droid Sans&quot;, sans-serif, &quot;PingFang SC&quot;; font-size: 11px; text-rendering: geometricprecision;">Image Class Labels</text><title>float32[1,10]</title></g><path class="node border" d="M5,0h97.2193603515625a5,5 0 0 1 5,5v10a5,5 0 0 1 -5,5h-97.2193603515625a5,5 0 0 1 -5,-5v-10a5,5 0 0 1 5,-5z" style="stroke: rgb(51, 51, 51); fill: none; stroke-width: 1px;"/></g></g></g></svg>