<svg xmlns="http://www.w3.org/2000/svg" id="export" class="canvas" preserveAspectRatio="xMidYMid meet" style="" width="1286" height="55"><rect id="background" fill="#fff" pointer-events="all" width="1286" height="55"/><g id="origin" transform="translate(2.5, 2.500000000001741) scale(1)"><g id="clusters" class="clusters"/><g id="edge-paths" class="edge-paths"><defs><marker id="arrowhead" viewBox="0 0 10 10" refX="9" refY="5" markerUnits="strokeWidth" markerWidth="8" markerHeight="6" orient="auto" style="fill: rgb(0, 0, 0);"><path d="M 0 0 L 10 5 L 0 10 L 4 5 z" style="stroke-width: 1;"/></marker><marker id="arrowhead-select" viewBox="0 0 10 10" refX="9" refY="5" markerUnits="strokeWidth" markerWidth="8" markerHeight="6" orient="auto" style="fill: rgb(238, 0, 0);"><path d="M 0 0 L 10 5 L 0 10 L 4 5 z" style="stroke-width: 1;"/></marker><marker id="arrowhead-hover" viewBox="0 0 10 10" refX="9" refY="5" markerUnits="strokeWidth" markerWidth="8" markerHeight="6" orient="auto" style="fill: rgb(238, 0, 0);"><path d="M 0 0 L 10 5 L 0 10 L 4 5 z" style="stroke-width: 1;"/></marker></defs><path class="edge-path-hit-test" d="M73.71875,25L75.38541666666667,25C77.05208333333333,25,80.38541666666667,25,87.97874959309895,25C95.57208251953125,25,107.4254150390625,25,119.27874755859375,25C131.132080078125,25,142.98541259765625,25,150.57874552408853,25C158.17207845052084,25,161.50541178385416,25,163.17207845052084,25L164.8387451171875,25" style="pointer-events: stroke; stroke-width: 0.5em; fill: none; stroke-opacity: 0;"/><path id="edge-Input Image" class="edge-path" d="M73.71875,25L75.38541666666667,25C77.05208333333333,25,80.38541666666667,25,87.97874959309895,25C95.57208251953125,25,107.4254150390625,25,119.27874755859375,25C131.132080078125,25,142.98541259765625,25,150.57874552408853,25C158.17207845052084,25,161.50541178385416,25,163.17207845052084,25L164.8387451171875,25" style="stroke: rgb(0, 0, 0); stroke-width: 1px; fill: none; marker-end: url(&quot;#arrowhead&quot;);"/><path class="edge-path-hit-test" d="M243.9949951171875,25L245.66166178385416,25C247.32832845052084,25,250.66166178385416,25,253.9949951171875,25C257.3283284505208,25,260.6616617838542,25,262.3283284505208,25L263.9949951171875,25" style="pointer-events: stroke; stroke-width: 0.5em; fill: none; stroke-opacity: 0;"/><path id="edge-input" class="edge-path" d="M243.9949951171875,25L245.66166178385416,25C247.32832845052084,25,250.66166178385416,25,253.9949951171875,25C257.3283284505208,25,260.6616617838542,25,262.3283284505208,25L263.9949951171875,25" style="stroke: rgb(0, 0, 0); stroke-width: 1px; fill: none; marker-end: url(&quot;#arrowhead&quot;);"/><path class="edge-path-hit-test" d="M329.0574951171875,25L330.7241617838542,25C332.3908284505208,25,335.7241617838542,25,339.0574951171875,25C342.3908284505208,25,345.7241617838542,25,347.3908284505208,25L349.0574951171875,25" style="pointer-events: stroke; stroke-width: 0.5em; fill: none; stroke-opacity: 0;"/><path id="edge-input.4" class="edge-path" d="M329.0574951171875,25L330.7241617838542,25C332.3908284505208,25,335.7241617838542,25,339.0574951171875,25C342.3908284505208,25,345.7241617838542,25,347.3908284505208,25L349.0574951171875,25" style="stroke: rgb(0, 0, 0); stroke-width: 1px; fill: none; marker-end: url(&quot;#arrowhead&quot;);"/><path class="edge-path-hit-test" d="M433.2918701171875,25L434.9585367838542,25C436.6252034505208,25,439.9585367838542,25,443.2918701171875,25C446.6252034505208,25,449.9585367838542,25,451.6252034505208,25L453.2918701171875,25" style="pointer-events: stroke; stroke-width: 0.5em; fill: none; stroke-opacity: 0;"/><path id="edge-input.8" class="edge-path" d="M433.2918701171875,25L434.9585367838542,25C436.6252034505208,25,439.9585367838542,25,443.2918701171875,25C446.6252034505208,25,449.9585367838542,25,451.6252034505208,25L453.2918701171875,25" style="stroke: rgb(0, 0, 0); stroke-width: 1px; fill: none; marker-end: url(&quot;#arrowhead&quot;);"/><path class="edge-path-hit-test" d="M518.3543701171875,25L520.0210367838541,25C521.6877034505209,25,525.0210367838541,25,528.3543701171875,25C531.6877034505209,25,535.0210367838541,25,536.6877034505209,25L538.3543701171875,25" style="pointer-events: stroke; stroke-width: 0.5em; fill: none; stroke-opacity: 0;"/><path id="edge-input.12" class="edge-path" d="M518.3543701171875,25L520.0210367838541,25C521.6877034505209,25,525.0210367838541,25,528.3543701171875,25C531.6877034505209,25,535.0210367838541,25,536.6877034505209,25L538.3543701171875,25" style="stroke: rgb(0, 0, 0); stroke-width: 1px; fill: none; marker-end: url(&quot;#arrowhead&quot;);"/><path class="edge-path-hit-test" d="M622.5887451171875,25L624.2554117838541,25C625.9220784505209,25,629.2554117838541,25,632.5887451171875,25C635.9220784505209,25,639.2554117838541,25,640.9220784505209,25L642.5887451171875,25" style="pointer-events: stroke; stroke-width: 0.5em; fill: none; stroke-opacity: 0;"/><path id="edge-input.16" class="edge-path" d="M622.5887451171875,25L624.2554117838541,25C625.9220784505209,25,629.2554117838541,25,632.5887451171875,25C635.9220784505209,25,639.2554117838541,25,640.9220784505209,25L642.5887451171875,25" style="stroke: rgb(0, 0, 0); stroke-width: 1px; fill: none; marker-end: url(&quot;#arrowhead&quot;);"/><path class="edge-path-hit-test" d="M707.6512451171875,25L709.3179117838541,25C710.9845784505209,25,714.3179117838541,25,717.6512451171875,25C720.9845784505209,25,724.3179117838541,25,725.9845784505209,25L727.6512451171875,25" style="pointer-events: stroke; stroke-width: 0.5em; fill: none; stroke-opacity: 0;"/><path id="edge-onnx::Flatten_16" class="edge-path" d="M707.6512451171875,25L709.3179117838541,25C710.9845784505209,25,714.3179117838541,25,717.6512451171875,25C720.9845784505209,25,724.3179117838541,25,725.9845784505209,25L727.6512451171875,25" style="stroke: rgb(0, 0, 0); stroke-width: 1px; fill: none; marker-end: url(&quot;#arrowhead&quot;);"/><path class="edge-path-hit-test" d="M777.5106201171875,25L779.1772867838541,25C780.8439534505209,25,784.1772867838541,25,787.5106201171875,25C790.8439534505209,25,794.1772867838541,25,795.8439534505209,25L797.5106201171875,25" style="pointer-events: stroke; stroke-width: 0.5em; fill: none; stroke-opacity: 0;"/><path id="edge-onnx::Gemm_17" class="edge-path" d="M777.5106201171875,25L779.1772867838541,25C780.8439534505209,25,784.1772867838541,25,787.5106201171875,25C790.8439534505209,25,794.1772867838541,25,795.8439534505209,25L797.5106201171875,25" style="stroke: rgb(0, 0, 0); stroke-width: 1px; fill: none; marker-end: url(&quot;#arrowhead&quot;);"/><path class="edge-path-hit-test" d="M874.1824951171875,25L875.8491617838541,25C877.5158284505209,25,880.8491617838541,25,884.1824951171875,25C887.5158284505209,25,890.8491617838541,25,892.5158284505209,25L894.1824951171875,25" style="pointer-events: stroke; stroke-width: 0.5em; fill: none; stroke-opacity: 0;"/><path id="edge-input.20" class="edge-path" d="M874.1824951171875,25L875.8491617838541,25C877.5158284505209,25,880.8491617838541,25,884.1824951171875,25C887.5158284505209,25,890.8491617838541,25,892.5158284505209,25L894.1824951171875,25" style="stroke: rgb(0, 0, 0); stroke-width: 1px; fill: none; marker-end: url(&quot;#arrowhead&quot;);"/><path class="edge-path-hit-test" d="M959.2449951171875,25L960.9116617838541,25C962.5783284505209,25,965.9116617838541,25,969.2449951171875,25C972.5783284505209,25,975.9116617838541,25,977.5783284505209,25L979.2449951171875,25" style="pointer-events: stroke; stroke-width: 0.5em; fill: none; stroke-opacity: 0;"/><path id="edge-onnx::Gemm_19" class="edge-path" d="M959.2449951171875,25L960.9116617838541,25C962.5783284505209,25,965.9116617838541,25,969.2449951171875,25C972.5783284505209,25,975.9116617838541,25,977.5783284505209,25L979.2449951171875,25" style="stroke: rgb(0, 0, 0); stroke-width: 1px; fill: none; marker-end: url(&quot;#arrowhead&quot;);"/><path class="edge-path-hit-test" d="M1054.2449951171875,25L1055.9116617838542,25C1057.5783284505208,25,1060.9116617838542,25,1064.2449951171875,25C1067.5783284505208,25,1070.9116617838542,25,1072.5783284505208,25L1074.2449951171875,25" style="pointer-events: stroke; stroke-width: 0.5em; fill: none; stroke-opacity: 0;"/><path id="edge-input.24" class="edge-path" d="M1054.2449951171875,25L1055.9116617838542,25C1057.5783284505208,25,1060.9116617838542,25,1064.2449951171875,25C1067.5783284505208,25,1070.9116617838542,25,1072.5783284505208,25L1074.2449951171875,25" style="stroke: rgb(0, 0, 0); stroke-width: 1px; fill: none; marker-end: url(&quot;#arrowhead&quot;);"/><path class="edge-path-hit-test" d="M1130.4677276611328,25L1134.0443941752117,25C1137.6210606892903,25,1144.774393717448,25,1151.9277267456055,25C1159.081059773763,25,1166.2343928019206,25,1169.8110593159993,25L1173.3877258300781,25" style="pointer-events: stroke; stroke-width: 0.5em; fill: none; stroke-opacity: 0;"/><path id="edge-Image Class Labels" class="edge-path" d="M1130.4677276611328,25L1134.0443941752117,25C1137.6210606892903,25,1144.774393717448,25,1151.9277267456055,25C1159.081059773763,25,1166.2343928019206,25,1169.8110593159993,25L1173.3877258300781,25" style="stroke: rgb(0, 0, 0); stroke-width: 1px; fill: none; marker-end: url(&quot;#arrowhead&quot;);"/></g><g id="edge-labels" class="edge-labels"><text class="edge-label" id="edge-label-edge-Input Image" style="opacity: 1; font-family: -apple-system, BlinkMacSystemFont, &quot;Segoe WPC&quot;, &quot;Segoe UI&quot;, Ubuntu, &quot;Droid Sans&quot;, sans-serif, &quot;PingFang SC&quot;; font-size: 10px;" transform="translate(93.71875,35)"><tspan xml:space="preserve" dy="1em" x="1">1×1×28×28</tspan></text><text class="edge-label" id="edge-label-edge-Image Class Labels" style="opacity: 1; font-family: -apple-system, BlinkMacSystemFont, &quot;Segoe WPC&quot;, &quot;Segoe UI&quot;, Ubuntu, &quot;Droid Sans&quot;, sans-serif, &quot;PingFang SC&quot;; font-size: 10px;" transform="translate(1140.4677276611328,35)"><tspan xml:space="preserve" dy="1em" x="1">1×10</tspan></text></g><g id="nodes" class="nodes"><g id="input-name-Input Image" class="node graph-input" style="opacity: 1;" transform="translate(0,15)"><g class="node-item graph-item-input" transform="translate(0,0)"><path d="M5,0h63.71875a5,5 0 0 1 5,5v10a5,5 0 0 1 -5,5h-63.71875a5,5 0 0 1 -5,-5v-10a5,5 0 0 1 5,-5z" style="stroke: rgb(0, 0, 0); fill: rgb(238, 238, 238); stroke-width: 0;"/><text x="6" y="13" style="font-family: -apple-system, BlinkMacSystemFont, &quot;Segoe WPC&quot;, &quot;Segoe UI&quot;, Ubuntu, &quot;Droid Sans&quot;, sans-serif, &quot;PingFang SC&quot;; font-size: 11px; text-rendering: geometricprecision;">Input Image</text><title>float32[1,1,28,28]</title></g><path class="node border" d="M5,0h63.71875a5,5 0 0 1 5,5v10a5,5 0 0 1 -5,5h-63.71875a5,5 0 0 1 -5,-5v-10a5,5 0 0 1 5,-5z" style="stroke: rgb(51, 51, 51); fill: none; stroke-width: 1px;"/></g><g id="node-name-Conv_0" class="node graph-node" style="opacity: 1;" transform="translate(164.8387451171875,0)"><g class="node-item node-item-type node-item-type-layer" transform="translate(0,0)"><path d="M5,0h69.15625a5,5 0 0 1 5,5v15a0,0 0 0 1 0,0h-79.15625a0,0 0 0 1 0,0v-15a5,5 0 0 1 5,-5z" style="stroke: rgb(0, 0, 0); fill: rgb(51, 85, 136); stroke-width: 0;"/><text x="6" y="13" style="font-family: -apple-system, BlinkMacSystemFont, &quot;Segoe WPC&quot;, &quot;Segoe UI&quot;, Ubuntu, &quot;Droid Sans&quot;, sans-serif, &quot;PingFang SC&quot;; font-size: 11px; text-rendering: geometricprecision; fill: rgb(255, 255, 255);">Conv</text><title>Conv_0</title></g><g class="node-attribute" transform="translate(0,20)"><path d="M0,0h79.15625a0,0 0 0 1 0,0v25a5,5 0 0 1 -5,5h-69.15625a5,5 0 0 1 -5,-5v-25a0,0 0 0 1 0,0z" style="stroke: rgb(0, 0, 0); fill: rgb(255, 255, 255); stroke-width: 0;"/><text id="initializer-hidden0.0.weight" xml:space="preserve" x="6" y="12" style="font-family: -apple-system, BlinkMacSystemFont, &quot;Segoe WPC&quot;, &quot;Segoe UI&quot;, Ubuntu, &quot;Droid Sans&quot;, sans-serif, &quot;PingFang SC&quot;; font-size: 9px; font-weight: normal; text-rendering: geometricprecision;"><title>float32[16,1,4,4]</title><tspan style="font-weight: bold;">W</tspan><tspan>〈16×1×4×4〉</tspan></text><text id="initializer-hidden0.0.bias" xml:space="preserve" x="6" y="24" style="font-family: -apple-system, BlinkMacSystemFont, &quot;Segoe WPC&quot;, &quot;Segoe UI&quot;, Ubuntu, &quot;Droid Sans&quot;, sans-serif, &quot;PingFang SC&quot;; font-size: 9px; font-weight: normal; text-rendering: geometricprecision;"><title>float32[16]</title><tspan style="font-weight: bold;">B</tspan><tspan>〈16〉</tspan></text><line class="node" x1="0" x2="79.15625" y1="0" y2="0" style="stroke: rgb(51, 51, 51); fill: none; stroke-width: 1px;"/></g><path class="node border" d="M5,0h69.15625a5,5 0 0 1 5,5v40a5,5 0 0 1 -5,5h-69.15625a5,5 0 0 1 -5,-5v-40a5,5 0 0 1 5,-5z" style="stroke: rgb(51, 51, 51); fill: none; stroke-width: 1px;"/></g><g id="node-name-LeakyRelu_1" class="node graph-node" style="opacity: 1;" transform="translate(263.9949951171875,15)"><g class="node-item node-item-type node-item-type-activation" transform="translate(0,0)"><path d="M5,0h55.0625a5,5 0 0 1 5,5v10a5,5 0 0 1 -5,5h-55.0625a5,5 0 0 1 -5,-5v-10a5,5 0 0 1 5,-5z" style="stroke: rgb(0, 0, 0); fill: rgb(112, 41, 33); stroke-width: 0;"/><text x="6" y="13" style="font-family: -apple-system, BlinkMacSystemFont, &quot;Segoe WPC&quot;, &quot;Segoe UI&quot;, Ubuntu, &quot;Droid Sans&quot;, sans-serif, &quot;PingFang SC&quot;; font-size: 11px; text-rendering: geometricprecision; fill: rgb(255, 255, 255);">LeakyRelu</text><title>LeakyRelu_1</title></g><path class="node border" d="M5,0h55.0625a5,5 0 0 1 5,5v10a5,5 0 0 1 -5,5h-55.0625a5,5 0 0 1 -5,-5v-10a5,5 0 0 1 5,-5z" style="stroke: rgb(51, 51, 51); fill: none; stroke-width: 1px;"/></g><g id="node-name-Conv_2" class="node graph-node" style="opacity: 1;" transform="translate(349.0574951171875,0)"><g class="node-item node-item-type node-item-type-layer" transform="translate(0,0)"><path d="M5,0h74.234375a5,5 0 0 1 5,5v15a0,0 0 0 1 0,0h-84.234375a0,0 0 0 1 0,0v-15a5,5 0 0 1 5,-5z" style="stroke: rgb(0, 0, 0); fill: rgb(51, 85, 136); stroke-width: 0;"/><text x="6" y="13" style="font-family: -apple-system, BlinkMacSystemFont, &quot;Segoe WPC&quot;, &quot;Segoe UI&quot;, Ubuntu, &quot;Droid Sans&quot;, sans-serif, &quot;PingFang SC&quot;; font-size: 11px; text-rendering: geometricprecision; fill: rgb(255, 255, 255);">Conv</text><title>Conv_2</title></g><g class="node-attribute" transform="translate(0,20)"><path d="M0,0h84.234375a0,0 0 0 1 0,0v25a5,5 0 0 1 -5,5h-74.234375a5,5 0 0 1 -5,-5v-25a0,0 0 0 1 0,0z" style="stroke: rgb(0, 0, 0); fill: rgb(255, 255, 255); stroke-width: 0;"/><text id="initializer-hidden1.0.weight" xml:space="preserve" x="6" y="12" style="font-family: -apple-system, BlinkMacSystemFont, &quot;Segoe WPC&quot;, &quot;Segoe UI&quot;, Ubuntu, &quot;Droid Sans&quot;, sans-serif, &quot;PingFang SC&quot;; font-size: 9px; font-weight: normal; text-rendering: geometricprecision;"><title>float32[64,16,4,4]</title><tspan style="font-weight: bold;">W</tspan><tspan>〈64×16×4×4〉</tspan></text><text id="initializer-hidden1.0.bias" xml:space="preserve" x="6" y="24" style="font-family: -apple-system, BlinkMacSystemFont, &quot;Segoe WPC&quot;, &quot;Segoe UI&quot;, Ubuntu, &quot;Droid Sans&quot;, sans-serif, &quot;PingFang SC&quot;; font-size: 9px; font-weight: normal; text-rendering: geometricprecision;"><title>float32[64]</title><tspan style="font-weight: bold;">B</tspan><tspan>〈64〉</tspan></text><line class="node" x1="0" x2="84.234375" y1="0" y2="0" style="stroke: rgb(51, 51, 51); fill: none; stroke-width: 1px;"/></g><path class="node border" d="M5,0h74.234375a5,5 0 0 1 5,5v40a5,5 0 0 1 -5,5h-74.234375a5,5 0 0 1 -5,-5v-40a5,5 0 0 1 5,-5z" style="stroke: rgb(51, 51, 51); fill: none; stroke-width: 1px;"/></g><g id="node-name-LeakyRelu_3" class="node graph-node" style="opacity: 1;" transform="translate(453.2918701171875,15)"><g class="node-item node-item-type node-item-type-activation" transform="translate(0,0)"><path d="M5,0h55.0625a5,5 0 0 1 5,5v10a5,5 0 0 1 -5,5h-55.0625a5,5 0 0 1 -5,-5v-10a5,5 0 0 1 5,-5z" style="stroke: rgb(0, 0, 0); fill: rgb(112, 41, 33); stroke-width: 0;"/><text x="6" y="13" style="font-family: -apple-system, BlinkMacSystemFont, &quot;Segoe WPC&quot;, &quot;Segoe UI&quot;, Ubuntu, &quot;Droid Sans&quot;, sans-serif, &quot;PingFang SC&quot;; font-size: 11px; text-rendering: geometricprecision; fill: rgb(255, 255, 255);">LeakyRelu</text><title>LeakyRelu_3</title></g><path class="node border" d="M5,0h55.0625a5,5 0 0 1 5,5v10a5,5 0 0 1 -5,5h-55.0625a5,5 0 0 1 -5,-5v-10a5,5 0 0 1 5,-5z" style="stroke: rgb(51, 51, 51); fill: none; stroke-width: 1px;"/></g><g id="node-name-Conv_4" class="node graph-node" style="opacity: 1;" transform="translate(538.3543701171875,0)"><g class="node-item node-item-type node-item-type-layer" transform="translate(0,0)"><path d="M5,0h74.234375a5,5 0 0 1 5,5v15a0,0 0 0 1 0,0h-84.234375a0,0 0 0 1 0,0v-15a5,5 0 0 1 5,-5z" style="stroke: rgb(0, 0, 0); fill: rgb(51, 85, 136); stroke-width: 0;"/><text x="6" y="13" style="font-family: -apple-system, BlinkMacSystemFont, &quot;Segoe WPC&quot;, &quot;Segoe UI&quot;, Ubuntu, &quot;Droid Sans&quot;, sans-serif, &quot;PingFang SC&quot;; font-size: 11px; text-rendering: geometricprecision; fill: rgb(255, 255, 255);">Conv</text><title>Conv_4</title></g><g class="node-attribute" transform="translate(0,20)"><path d="M0,0h84.234375a0,0 0 0 1 0,0v25a5,5 0 0 1 -5,5h-74.234375a5,5 0 0 1 -5,-5v-25a0,0 0 0 1 0,0z" style="stroke: rgb(0, 0, 0); fill: rgb(255, 255, 255); stroke-width: 0;"/><text id="initializer-hidden2.0.weight" xml:space="preserve" x="6" y="12" style="font-family: -apple-system, BlinkMacSystemFont, &quot;Segoe WPC&quot;, &quot;Segoe UI&quot;, Ubuntu, &quot;Droid Sans&quot;, sans-serif, &quot;PingFang SC&quot;; font-size: 9px; font-weight: normal; text-rendering: geometricprecision;"><title>float32[16,64,4,4]</title><tspan style="font-weight: bold;">W</tspan><tspan>〈16×64×4×4〉</tspan></text><text id="initializer-hidden2.0.bias" xml:space="preserve" x="6" y="24" style="font-family: -apple-system, BlinkMacSystemFont, &quot;Segoe WPC&quot;, &quot;Segoe UI&quot;, Ubuntu, &quot;Droid Sans&quot;, sans-serif, &quot;PingFang SC&quot;; font-size: 9px; font-weight: normal; text-rendering: geometricprecision;"><title>float32[16]</title><tspan style="font-weight: bold;">B</tspan><tspan>〈16〉</tspan></text><line class="node" x1="0" x2="84.234375" y1="0" y2="0" style="stroke: rgb(51, 51, 51); fill: none; stroke-width: 1px;"/></g><path class="node border" d="M5,0h74.234375a5,5 0 0 1 5,5v40a5,5 0 0 1 -5,5h-74.234375a5,5 0 0 1 -5,-5v-40a5,5 0 0 1 5,-5z" style="stroke: rgb(51, 51, 51); fill: none; stroke-width: 1px;"/></g><g id="node-name-LeakyRelu_5" class="node graph-node" style="opacity: 1;" transform="translate(642.5887451171875,15)"><g class="node-item node-item-type node-item-type-activation" transform="translate(0,0)"><path d="M5,0h55.0625a5,5 0 0 1 5,5v10a5,5 0 0 1 -5,5h-55.0625a5,5 0 0 1 -5,-5v-10a5,5 0 0 1 5,-5z" style="stroke: rgb(0, 0, 0); fill: rgb(112, 41, 33); stroke-width: 0;"/><text x="6" y="13" style="font-family: -apple-system, BlinkMacSystemFont, &quot;Segoe WPC&quot;, &quot;Segoe UI&quot;, Ubuntu, &quot;Droid Sans&quot;, sans-serif, &quot;PingFang SC&quot;; font-size: 11px; text-rendering: geometricprecision; fill: rgb(255, 255, 255);">LeakyRelu</text><title>LeakyRelu_5</title></g><path class="node border" d="M5,0h55.0625a5,5 0 0 1 5,5v10a5,5 0 0 1 -5,5h-55.0625a5,5 0 0 1 -5,-5v-10a5,5 0 0 1 5,-5z" style="stroke: rgb(51, 51, 51); fill: none; stroke-width: 1px;"/></g><g id="node-name-Flatten_6" class="node graph-node" style="opacity: 1;" transform="translate(727.6512451171875,15)"><g class="node-item node-item-type node-item-type-shape" transform="translate(0,0)"><path d="M5,0h39.859375a5,5 0 0 1 5,5v10a5,5 0 0 1 -5,5h-39.859375a5,5 0 0 1 -5,-5v-10a5,5 0 0 1 5,-5z" style="stroke: rgb(0, 0, 0); fill: rgb(108, 79, 71); stroke-width: 0;"/><text x="6" y="13" style="font-family: -apple-system, BlinkMacSystemFont, &quot;Segoe WPC&quot;, &quot;Segoe UI&quot;, Ubuntu, &quot;Droid Sans&quot;, sans-serif, &quot;PingFang SC&quot;; font-size: 11px; text-rendering: geometricprecision; fill: rgb(255, 255, 255);">Flatten</text><title>Flatten_6</title></g><path class="node border" d="M5,0h39.859375a5,5 0 0 1 5,5v10a5,5 0 0 1 -5,5h-39.859375a5,5 0 0 1 -5,-5v-10a5,5 0 0 1 5,-5z" style="stroke: rgb(51, 51, 51); fill: none; stroke-width: 1px;"/></g><g id="node-name-Gemm_7" class="node graph-node" style="opacity: 1;" transform="translate(797.5106201171875,0)"><g class="node-item node-item-type node-item-type-layer" transform="translate(0,0)"><path d="M5,0h66.671875a5,5 0 0 1 5,5v15a0,0 0 0 1 0,0h-76.671875a0,0 0 0 1 0,0v-15a5,5 0 0 1 5,-5z" style="stroke: rgb(0, 0, 0); fill: rgb(51, 85, 136); stroke-width: 0;"/><text x="6" y="13" style="font-family: -apple-system, BlinkMacSystemFont, &quot;Segoe WPC&quot;, &quot;Segoe UI&quot;, Ubuntu, &quot;Droid Sans&quot;, sans-serif, &quot;PingFang SC&quot;; font-size: 11px; text-rendering: geometricprecision; fill: rgb(255, 255, 255);">Gemm</text><title>Gemm_7</title></g><g class="node-attribute" transform="translate(0,20)"><path d="M0,0h76.671875a0,0 0 0 1 0,0v25a5,5 0 0 1 -5,5h-66.671875a5,5 0 0 1 -5,-5v-25a0,0 0 0 1 0,0z" style="stroke: rgb(0, 0, 0); fill: rgb(255, 255, 255); stroke-width: 0;"/><text id="initializer-hidden3.0.weight" xml:space="preserve" x="6" y="12" style="font-family: -apple-system, BlinkMacSystemFont, &quot;Segoe WPC&quot;, &quot;Segoe UI&quot;, Ubuntu, &quot;Droid Sans&quot;, sans-serif, &quot;PingFang SC&quot;; font-size: 9px; font-weight: normal; text-rendering: geometricprecision;"><title>float32[200,5776]</title><tspan style="font-weight: bold;">B</tspan><tspan>〈200×5776〉</tspan></text><text id="initializer-hidden3.0.bias" xml:space="preserve" x="6" y="24" style="font-family: -apple-system, BlinkMacSystemFont, &quot;Segoe WPC&quot;, &quot;Segoe UI&quot;, Ubuntu, &quot;Droid Sans&quot;, sans-serif, &quot;PingFang SC&quot;; font-size: 9px; font-weight: normal; text-rendering: geometricprecision;"><title>float32[200]</title><tspan style="font-weight: bold;">C</tspan><tspan>〈200〉</tspan></text><line class="node" x1="0" x2="76.671875" y1="0" y2="0" style="stroke: rgb(51, 51, 51); fill: none; stroke-width: 1px;"/></g><path class="node border" d="M5,0h66.671875a5,5 0 0 1 5,5v40a5,5 0 0 1 -5,5h-66.671875a5,5 0 0 1 -5,-5v-40a5,5 0 0 1 5,-5z" style="stroke: rgb(51, 51, 51); fill: none; stroke-width: 1px;"/></g><g id="node-name-LeakyRelu_8" class="node graph-node" style="opacity: 1;" transform="translate(894.1824951171875,15)"><g class="node-item node-item-type node-item-type-activation" transform="translate(0,0)"><path d="M5,0h55.0625a5,5 0 0 1 5,5v10a5,5 0 0 1 -5,5h-55.0625a5,5 0 0 1 -5,-5v-10a5,5 0 0 1 5,-5z" style="stroke: rgb(0, 0, 0); fill: rgb(112, 41, 33); stroke-width: 0;"/><text x="6" y="13" style="font-family: -apple-system, BlinkMacSystemFont, &quot;Segoe WPC&quot;, &quot;Segoe UI&quot;, Ubuntu, &quot;Droid Sans&quot;, sans-serif, &quot;PingFang SC&quot;; font-size: 11px; text-rendering: geometricprecision; fill: rgb(255, 255, 255);">LeakyRelu</text><title>LeakyRelu_8</title></g><path class="node border" d="M5,0h55.0625a5,5 0 0 1 5,5v10a5,5 0 0 1 -5,5h-55.0625a5,5 0 0 1 -5,-5v-10a5,5 0 0 1 5,-5z" style="stroke: rgb(51, 51, 51); fill: none; stroke-width: 1px;"/></g><g id="node-name-Gemm_9" class="node graph-node" style="opacity: 1;" transform="translate(979.2449951171875,0)"><g class="node-item node-item-type node-item-type-layer" transform="translate(0,0)"><path d="M5,0h65a5,5 0 0 1 5,5v15a0,0 0 0 1 0,0h-75a0,0 0 0 1 0,0v-15a5,5 0 0 1 5,-5z" style="stroke: rgb(0, 0, 0); fill: rgb(51, 85, 136); stroke-width: 0;"/><text x="6" y="13" style="font-family: -apple-system, BlinkMacSystemFont, &quot;Segoe WPC&quot;, &quot;Segoe UI&quot;, Ubuntu, &quot;Droid Sans&quot;, sans-serif, &quot;PingFang SC&quot;; font-size: 11px; text-rendering: geometricprecision; fill: rgb(255, 255, 255);">Gemm</text><title>Gemm_9</title></g><g class="node-attribute" transform="translate(0,20)"><path d="M0,0h75a0,0 0 0 1 0,0v25a5,5 0 0 1 -5,5h-65a5,5 0 0 1 -5,-5v-25a0,0 0 0 1 0,0z" style="stroke: rgb(0, 0, 0); fill: rgb(255, 255, 255); stroke-width: 0;"/><text id="initializer-hidden4.0.weight" xml:space="preserve" x="6" y="12" style="font-family: -apple-system, BlinkMacSystemFont, &quot;Segoe WPC&quot;, &quot;Segoe UI&quot;, Ubuntu, &quot;Droid Sans&quot;, sans-serif, &quot;PingFang SC&quot;; font-size: 9px; font-weight: normal; text-rendering: geometricprecision;"><title>float32[10,200]</title><tspan style="font-weight: bold;">B</tspan><tspan>〈10×200〉</tspan></text><text id="initializer-hidden4.0.bias" xml:space="preserve" x="6" y="24" style="font-family: -apple-system, BlinkMacSystemFont, &quot;Segoe WPC&quot;, &quot;Segoe UI&quot;, Ubuntu, &quot;Droid Sans&quot;, sans-serif, &quot;PingFang SC&quot;; font-size: 9px; font-weight: normal; text-rendering: geometricprecision;"><title>float32[10]</title><tspan style="font-weight: bold;">C</tspan><tspan>〈10〉</tspan></text><line class="node" x1="0" x2="75" y1="0" y2="0" style="stroke: rgb(51, 51, 51); fill: none; stroke-width: 1px;"/></g><path class="node border" d="M5,0h65a5,5 0 0 1 5,5v40a5,5 0 0 1 -5,5h-65a5,5 0 0 1 -5,-5v-40a5,5 0 0 1 5,-5z" style="stroke: rgb(51, 51, 51); fill: none; stroke-width: 1px;"/></g><g id="node-name-Softmax_10" class="node graph-node" style="opacity: 1;" transform="translate(1074.2449951171875,15)"><g class="node-item node-item-type node-item-type-activation" transform="translate(0,0)"><path d="M5,0h46.22273254394531a5,5 0 0 1 5,5v10a5,5 0 0 1 -5,5h-46.22273254394531a5,5 0 0 1 -5,-5v-10a5,5 0 0 1 5,-5z" style="stroke: rgb(0, 0, 0); fill: rgb(112, 41, 33); stroke-width: 0;"/><text x="6" y="13" style="font-family: -apple-system, BlinkMacSystemFont, &quot;Segoe WPC&quot;, &quot;Segoe UI&quot;, Ubuntu, &quot;Droid Sans&quot;, sans-serif, &quot;PingFang SC&quot;; font-size: 11px; text-rendering: geometricprecision; fill: rgb(255, 255, 255);">Softmax</text><title>Softmax_10</title></g><path class="node border" d="M5,0h46.22273254394531a5,5 0 0 1 5,5v10a5,5 0 0 1 -5,5h-46.22273254394531a5,5 0 0 1 -5,-5v-10a5,5 0 0 1 5,-5z" style="stroke: rgb(51, 51, 51); fill: none; stroke-width: 1px;"/></g><g class="node" style="opacity: 1;" transform="translate(1173.3877258300781,15)"><g class="node-item graph-item-output" transform="translate(0,0)"><path d="M5,0h97.2193603515625a5,5 0 0 1 5,5v10a5,5 0 0 1 -5,5h-97.2193603515625a5,5 0 0 1 -5,-5v-10a5,5 0 0 1 5,-5z" style="stroke: rgb(0, 0, 0); fill: rgb(238, 238, 238); stroke-width: 0;"/><text x="6" y="13" style="font-family: -apple-system, BlinkMacSystemFont, &quot;Segoe WPC&quot;, &quot;Segoe UI&quot;, Ubuntu, &quot;Droid Sans&quot;, sans-serif, &quot;PingFang SC&quot;; font-size: 11px; text-rendering: geometricprecision;">Image Class Labels</text><title>float32[1,10]</title></g><path class="node border" d="M5,0h97.2193603515625a5,5 0 0 1 5,5v10a5,5 0 0 1 -5,5h-97.2193603515625a5,5 0 0 1 -5,-5v-10a5,5 0 0 1 5,-5z" style="stroke: rgb(51, 51, 51); fill: none; stroke-width: 1px;"/></g></g></g></svg>